<svg viewBox="0 0 2845 2845" xmlns="http://www.w3.org/2000/svg" fill-rule="evenodd" clip-rule="evenodd" stroke-linejoin="round" stroke-miterlimit="1.414"><path d="M928.673 11.111l-567.562 79.5 5.556 103.834 305.556 16.666-5.556 2444.447L400 2688.89l-5.555 133.333H1250l11.111-133.333-283.333-33.333 5.555-1200.001s80.6-317.467 494.445-277.778c0 0 373.678-32.806 405.556 488.889l-5.556 1155.556h583.334l11.111-138.889-283.333-27.777-5.556-1011.112s26.817-638.517-572.223-666.667c0 0-395.039-53.206-627.778 261.11L977.78 144.446 928.673 11.11zM1794.446 450s28.467-180.555 205.556-194.444c0 0 173.86 4.789 205.555 211.111 0 0-13.694 178.584-205.555 205.556 0 0-190.584-4.55-205.556-222.223z"/></svg>